<svg width="163" height="36" viewBox="0 0 163 36" fill="none" xmlns="http://www.w3.org/2000/svg">
<path d="M62.3389 8.1C59.9556 8.1 57.9193 8.89152 56.2533 10.4978C54.6105 12.1041 53.7775 14.1062 53.7775 16.504C53.7775 18.9019 54.6105 20.9039 56.2533 22.5102C57.9193 24.0933 59.9556 24.8848 62.3389 24.8848C64.861 24.8848 67.1749 23.7906 68.7484 21.9282L66.8047 20.2288C65.6709 21.579 64.1668 22.2542 62.3389 22.2542C60.7191 22.2542 59.3539 21.7187 58.2664 20.6246C57.1789 19.5304 56.6467 18.1569 56.6467 16.504C56.6467 14.8512 57.1789 13.4776 58.2664 12.3835C59.3539 11.2893 60.7191 10.7306 62.3389 10.7306C64.1206 10.7306 65.6015 11.3825 66.7584 12.7094L68.7252 11.01C67.0361 9.07775 64.9073 8.1 62.3389 8.1Z" fill="#323232"/>
<path d="M71.176 29.4011C71.5693 29.5175 72.0321 29.5873 72.5412 29.5873C73.7212 29.5873 74.6468 29.2614 75.341 28.6096C75.8269 28.1207 76.2434 27.4223 76.5905 26.5144L81.8199 12.8724H79.0201L75.8037 21.7187L72.3792 12.8724H69.5794L74.4617 25.0477L74.1609 25.8858C73.9758 26.3747 73.7444 26.7239 73.4899 26.8868C73.2353 27.0498 72.9114 27.1429 72.4717 27.1429C71.9627 27.1429 71.523 27.0731 71.176 26.9567V29.4011Z" fill="#323232"/>
<path d="M86.0724 24.6054V22.906C86.4657 24.0467 87.8772 24.8615 89.7978 24.8615C91.4406 24.8615 92.829 24.2795 93.9396 23.1155C95.0734 21.9282 95.6288 20.4849 95.6288 18.7389C95.6288 16.9929 95.0734 15.5496 93.9396 14.3856C92.829 13.1983 91.4406 12.6163 89.7978 12.6163C87.8772 12.6163 86.4657 13.4311 86.0724 14.5718V8.37936H83.2957V24.6054H86.0724ZM89.4275 22.324C88.4326 22.324 87.5764 21.9748 86.8822 21.2997C86.2112 20.6246 85.8641 19.7632 85.8641 18.7389C85.8641 17.7146 86.2112 16.8532 86.8822 16.1781C87.5764 15.503 88.4326 15.1538 89.4275 15.1538C90.4225 15.1538 91.2324 15.503 91.8803 16.1781C92.5513 16.8532 92.8752 17.7146 92.8752 18.7389C92.8752 19.7632 92.5513 20.6246 91.8803 21.2997C91.2324 21.9748 90.4225 22.324 89.4275 22.324Z" fill="#323232"/>
<path d="M97.0451 18.832C97.0451 20.6711 97.6236 22.1378 98.7574 23.2319C99.8912 24.3261 101.395 24.8848 103.223 24.8848C105.19 24.8848 106.81 24.1864 108.129 22.7896L106.463 21.16C105.56 22.0679 104.519 22.5102 103.316 22.5102C101.256 22.5102 99.8912 21.2997 99.7987 19.4373H108.869C108.892 19.1347 108.915 18.8087 108.915 18.4595C108.915 16.7834 108.383 15.3866 107.296 14.2459C106.231 13.1052 104.843 12.5465 103.154 12.5465C101.372 12.5465 99.9144 13.1052 98.7574 14.2459C97.6236 15.3866 97.0451 16.8765 97.0451 18.7389V18.832ZM99.8681 17.4818C99.9375 16.7601 100.285 16.1548 100.909 15.666C101.534 15.1771 102.298 14.921 103.154 14.921C103.964 14.921 104.635 15.1771 105.213 15.6892C105.792 16.1781 106.092 16.7834 106.092 17.4818H99.8681Z" fill="#323232"/>
<path d="M113.527 24.6054V18.4363C113.527 16.504 114.753 15.2935 116.674 15.2935C117.09 15.2935 117.484 15.34 117.831 15.4099V12.7094C117.599 12.6629 117.322 12.6396 116.998 12.6396C115.355 12.6396 114.082 13.3845 113.527 14.6184V12.8724H110.773V24.6054H113.527Z" fill="#323232"/>
<path d="M122.543 24.326V17.5748C122.543 15.9685 123.607 14.8511 125.111 14.8511C126.592 14.8511 127.448 15.8521 127.448 17.4584V24.326H130.202V17.0627C130.202 14.1527 128.628 12.3601 125.944 12.3601C124.348 12.3601 123.075 13.1051 122.543 14.2225V8.09993H119.789V24.326H122.543Z" fill="#323232"/>
<path d="M133.944 22.8826C135.17 24.0699 136.674 24.6752 138.456 24.6752C140.237 24.6752 141.742 24.0699 142.968 22.8826C144.194 21.6954 144.819 20.2055 144.819 18.4595C144.819 16.7135 144.194 15.2236 142.968 14.0363C141.742 12.849 140.237 12.2437 138.456 12.2437C136.674 12.2437 135.17 12.849 133.944 14.0363C132.717 15.2236 132.093 16.7135 132.093 18.4595C132.093 20.2055 132.717 21.6954 133.944 22.8826ZM138.456 22.1377C137.415 22.1377 136.558 21.7885 135.864 21.0901C135.193 20.3684 134.846 19.5071 134.846 18.4595C134.846 17.4119 135.193 16.5505 135.864 15.8521C136.558 15.1304 137.415 14.7812 138.456 14.7812C139.474 14.7812 140.33 15.1304 141.024 15.8521C141.718 16.5505 142.065 17.4119 142.065 18.4595C142.065 19.5071 141.718 20.3684 141.024 21.0901C140.33 21.7885 139.474 22.1377 138.456 22.1377Z" fill="#323232"/>
<path d="M145.687 22.2541C146.427 23.7207 148.162 24.6286 150.499 24.6286C153.669 24.6286 155.289 23.0689 155.289 20.9038C155.289 19.2277 154.317 18.1801 152.165 17.4119C151.703 17.2489 151.055 17.0161 150.708 16.923C150.407 16.8066 149.944 16.6204 149.759 16.504C149.435 16.2944 149.227 16.0849 149.227 15.6892C149.227 15.0606 149.782 14.6416 150.638 14.6416C151.633 14.6416 152.397 14.9675 152.906 15.6193L154.456 13.9664C153.577 12.8257 152.327 12.2437 150.685 12.2437C149.528 12.2437 148.556 12.5697 147.746 13.1982C146.959 13.8268 146.566 14.6648 146.566 15.759C146.566 17.4351 147.561 18.3896 149.435 19.0647C149.828 19.2277 150.523 19.4372 150.87 19.5536C151.217 19.67 151.703 19.833 151.957 19.9959C152.351 20.2055 152.628 20.5314 152.628 20.9271C152.628 21.6488 152.003 22.2075 150.546 22.2075C149.134 22.2075 148 21.579 147.468 20.7409L145.687 22.2541Z" fill="#323232"/>
<path d="M157.041 20.671C157.041 23.325 158.29 24.6519 160.812 24.6519C161.368 24.6519 161.854 24.6053 162.247 24.5122V22.0213C161.946 22.0911 161.622 22.1144 161.275 22.1144C160.257 22.1144 159.817 21.6488 159.817 20.3684V15.1304H162.386V12.5929H159.817V8.09993H157.041V20.671Z" fill="#323232"/>
<path d="M23.24 23.2251C23.24 29.6388 18.0376 34.838 11.62 34.838C5.20245 34.838 0 29.6388 0 23.2251C0 16.8115 5.20245 11.6123 11.62 11.6123C18.0376 11.6123 23.24 16.8115 23.24 23.2251Z" fill="#76BE29"/>
<path d="M29.0499 34.8385H11.1219L29.2155 0.000702953C38.7656 0.0895331 46.4799 7.85405 46.4799 17.4192C46.4799 27.0396 38.6763 34.8385 29.0499 34.8385Z" fill="#76BE29"/>
<path d="M46.4799 17.4192C46.4799 27.0396 38.6763 34.8385 29.0499 34.8385C19.4236 34.8385 11.6203 27.0397 11.6203 17.4193C11.6203 7.79889 19.424 0 29.0504 0C38.6767 0 46.4799 7.79882 46.4799 17.4192Z" fill="#16897D"/>
<path d="M29.0499 34.8385H11.1219L29.2155 0.000702953C38.7656 0.0895331 46.4799 7.85405 46.4799 17.4192C46.4799 27.0396 38.6763 34.8385 29.0499 34.8385Z" fill="url(#paint0_linear_8950_492)"/>
<defs>
<linearGradient id="paint0_linear_8950_492" x1="10.8068" y1="35.1" x2="26.2144" y2="10.1112" gradientUnits="userSpaceOnUse">
<stop stop-color="#76BE29"/>
<stop offset="1" stop-color="#76BE29" stop-opacity="0"/>
</linearGradient>
</defs>
</svg>
