<svg width="20" height="20" viewBox="0 0 20 20" fill="none" xmlns="http://www.w3.org/2000/svg">
<path d="M18 4.375C18 4.125 17.8125 3.875 17.5625 3.8125L10.1875 1.25H9.8125L2.375 3.75C2.3125 3.8125 2.1875 3.875 2.125 3.9375L7.125 5.5625C7.4375 5.6875 7.625 6 7.5 6.375C7.375 6.75 7 6.875 6.6875 6.75L2 5.25C2 5.6875 2 6.125 2.0625 6.5625L7.125 8.25C7.4375 8.375 7.625 8.6875 7.5 9.0625C7.3125 9.5625 6.875 9.5 6.6875 9.4375L2.1875 7.9375C2.25 8.4375 2.375 8.875 2.5 9.375L7.125 10.9375C7.4375 11.0625 7.625 11.375 7.5 11.75C7.375 12.1875 6.875 12.1875 6.6875 12.125L2.9375 10.875C4.125 14 6.3125 16.5625 9.625 18.6875C9.8125 18.8125 10.0625 18.8125 10.3125 18.6875C15.6875 15.1875 18.25 10.5 18 4.375Z" fill="black"/>
</svg>
