<svg preserveAspectRatio="none" width="100%" height="100%" overflow="visible" style="display: block;" viewBox="0 0 36.48 31.104" fill="none" xmlns="http://www.w3.org/2000/svg">
<g id="Frame 40309">
<path id="&#226;&#128;&#156;" d="M8.832 0H16.512C14.3787 2.816 12.672 5.888 11.392 9.216C10.1973 12.544 9.64267 15.36 9.728 17.664L8.192 15.232C10.496 15.232 12.416 16 13.952 17.536C15.5733 18.9867 16.384 20.8213 16.384 23.04C16.384 25.2587 15.616 27.1787 14.08 28.8C12.544 30.336 10.7093 31.104 8.576 31.104C6.10133 31.104 4.05333 30.208 2.432 28.416C0.810667 26.624 0 24.3627 0 21.632C0 19.4133 0.384 17.024 1.152 14.464C2.00533 11.8187 3.11467 9.25867 4.48 6.784C5.84533 4.224 7.296 1.96267 8.832 0ZM28.8 0H36.48C34.3467 2.816 32.64 5.888 31.36 9.216C30.1653 12.544 29.6107 15.36 29.696 17.664L28.16 15.232C30.464 15.232 32.384 16 33.92 17.536C35.5413 18.9867 36.352 20.8213 36.352 23.04C36.352 25.2587 35.584 27.1787 34.048 28.8C32.512 30.336 30.6773 31.104 28.544 31.104C26.0693 31.104 24.0213 30.208 22.4 28.416C20.7787 26.624 19.968 24.3627 19.968 21.632C19.968 19.4133 20.352 17.024 21.12 14.464C21.9733 11.8187 23.0827 9.25867 24.448 6.784C25.8133 4.224 27.264 1.96267 28.8 0Z" fill="var(--fill-0, #76BE29)"/>
</g>
</svg>
