<svg preserveAspectRatio="none" width="100%" height="100%" overflow="visible" style="display: block;" viewBox="0 0 48 48" fill="none" xmlns="http://www.w3.org/2000/svg">
<g id="Group 383">
<mask id="mask0_0_116" style="mask-type:alpha" maskUnits="userSpaceOnUse" x="0" y="0" width="48" height="48">
<circle id="Ellipse 12" cx="24" cy="24" r="24" fill="var(--fill-0, white)"/>
</mask>
<g mask="url(#mask0_0_116)">
<circle id="Ellipse 13" cx="24" cy="24" r="24" fill="var(--fill-0, white)" fill-opacity="0.12"/>
<g id="Group 382">
<ellipse id="Ellipse 13_2" cx="30" cy="19.9999" rx="20.6667" ry="18.6667" fill="var(--fill-0, white)"/>
<path id="Vector" d="M11.5257 38.857C11.346 39.0111 11.4572 39.0881 11.6113 39.1565C13.7932 39.5844 15.9239 39.2934 18.0117 38.6431C18.722 38.4292 19.4322 38.2153 20.1509 38.0356C20.6387 37.9158 21.1521 37.9329 21.6227 38.104C27.0563 39.9694 32.4128 39.8068 37.6752 37.488C39.823 36.5382 41.6013 35.3231 43.2614 33.6545V14.5843C43.2614 10.5843 38.9998 6.66641 35.2614 6.66641H18.508C18.4909 6.82043 18.3455 6.83754 18.2428 6.89744C16.5485 7.89003 14.9998 9.07942 13.6991 10.5512C11.5428 12.9813 10.0625 15.7794 9.55763 19.0139C8.66773 24.7469 10.4475 29.5986 14.5035 33.6545C15.2308 34.3733 15.3249 34.9466 14.743 35.9221C14.0499 37.0943 12.9975 37.8901 11.8765 38.6175C11.7567 38.6945 11.6369 38.7715 11.5257 38.857Z" fill="var(--fill-0, white)"/>
<path id="Subtract" d="M39.1376 17.8919C41.5427 17.8167 43.2975 19.4293 43.373 21.7874C43.4484 24.1738 41.9857 25.8627 39.7313 26.0891C37.2788 26.3343 35.3264 24.5509 35.3642 22.1926C35.2888 19.7685 36.8832 17.9579 39.1376 17.8919ZM25.0722 18.3538C26.3456 17.5992 27.648 17.6654 28.8271 18.6936C29.0534 18.4012 29.2799 18.1271 29.6855 18.0422C30.4211 17.8916 31.1282 18.3727 31.1376 19.1272C31.1565 21.0138 31.147 22.9008 31.1376 24.7874C31.1374 25.2775 30.8266 25.7112 30.3554 25.8528C29.8838 26.032 29.3454 25.8808 29.0341 25.4846C28.8741 25.287 28.8078 25.2493 28.5819 25.428C27.7237 26.1259 26.7518 26.2488 25.705 25.9094C24.026 25.3718 23.3276 24.0608 23.1483 22.4573C22.9597 20.7406 23.5254 19.2594 25.0722 18.3538ZM33.3358 14.6653C34.0526 14.6559 34.534 15.1276 34.5341 15.8821C34.5435 17.3631 34.5341 18.8347 34.5341 20.3157C34.5341 21.7778 34.5432 23.2403 34.5243 24.7024C34.5337 24.8249 34.5145 24.938 34.4862 25.051C34.3164 25.7018 33.6468 26.0885 32.996 25.9094C32.5245 25.7867 32.1659 25.2774 32.1659 24.6926V15.8723C32.1755 15.1462 32.6379 14.6747 33.3358 14.6653ZM21.328 15.4954C21.6297 15.4766 21.9319 15.514 22.2147 15.5989C22.8559 15.8254 23.1389 16.411 22.8749 17.0335C22.6485 17.5804 22.2899 18.0427 21.9315 18.4954C20.6959 20.0706 19.4602 21.6366 18.2245 23.2024C18.1302 23.3249 18.0448 23.4473 17.8847 23.6545C19.3088 23.6545 20.6388 23.6451 21.9687 23.6545C22.723 23.664 23.129 23.9756 23.1952 24.5696C23.2801 25.3242 22.8462 25.815 22.0351 25.8245C20.507 25.8433 18.9879 25.8342 17.4599 25.8342C17.0167 25.8342 16.5733 25.8527 16.1396 25.8245C15.5926 25.7867 15.0551 25.683 14.7909 25.1174C14.5268 24.5515 14.7147 24.0416 15.0731 23.5794C16.5352 21.7306 17.9881 19.8724 19.4501 18.0237C19.5349 17.92 19.6202 17.8067 19.705 17.6936C19.6201 17.5239 19.4783 17.5988 19.3651 17.5989C18.3466 17.5895 17.3183 17.5985 16.2997 17.5891C16.064 17.5985 15.8278 17.5705 15.6015 17.5139C15.2432 17.4289 14.9604 17.1457 14.8661 16.7874C14.7343 16.2498 15.0548 15.7124 15.5829 15.5803C15.8093 15.5238 16.0454 15.4954 16.2812 15.4954C17.9601 15.4859 19.6491 15.4859 21.328 15.4954ZM27.0976 19.9592C26.0696 19.9028 25.343 20.7046 25.3524 22.0344C25.3713 22.4494 25.5034 22.8459 25.7392 23.176C25.8335 23.2986 25.9375 23.4027 26.0507 23.4876C26.7393 23.9968 27.7113 23.8552 28.2206 23.176C28.7488 22.4591 28.7488 21.2702 28.2206 20.5628C27.9565 20.195 27.5408 19.9782 27.0976 19.9592ZM39.3329 19.969C38.3142 19.9124 37.5967 20.6949 37.5966 21.8645C37.5872 22.3362 37.7198 22.799 38.0028 23.1858C38.0782 23.2893 38.1629 23.3839 38.2665 23.4592C38.9362 23.9872 39.917 23.8738 40.4452 23.2044C40.9922 22.4969 40.9926 21.2796 40.455 20.5628C40.191 20.2046 39.776 19.9786 39.3329 19.969Z" fill="var(--fill-0, #333333)"/>
</g>
</g>
</g>
</svg>
